<svg viewBox="0 0 48 48" xmlns="http://www.w3.org/2000/svg"><path d="m45 6v41l-2.59-2.59a2 2 0 0 0 -2.82 0l-2.59 2.59-2.59-2.59a2 2 0 0 0 -2.82 0l-2.59 2.59-2.59-2.59a2 2 0 0 0 -2.82 0l-2.59 2.59-2.59-2.59a2 2 0 0 0 -2.82 0l-2.59 2.59v-41a5 5 0 0 0 -5-5h32a5 5 0 0 1 5 5z" fill="#dad7e5"/><path d="m13 6v11l-2 2-2.59-2.59a2 2 0 0 0 -2.82 0l-2.59 2.59v-13a5 5 0 1 1 10 0z" fill="#c6c3d8"/><path d="m11 8v11l-2.59-2.59a2 2 0 0 0 -2.82 0l-2.59 2.59c0-13.95-.21-13.9.61-15.39a5 5 0 0 1 7.39 4.39z" fill="#dad7e5"/><path d="m45 6v37a32 32 0 0 1 -32-32v-5a5 5 0 0 0 -5-5h32a5 5 0 0 1 5 5z" fill="#edebf2"/><path d="m20 11a1 1 0 0 1 0-2h2a1 1 0 0 0 0-2h-1v-1a1 1 0 0 0 -2 0v1.18a3 3 0 0 0 1 5.82 1 1 0 0 1 0 2h-2a1 1 0 0 0 0 2h1v1a1 1 0 0 0 2 0v-1.18a3 3 0 0 0 -1-5.82z" fill="#ffba55"/><g fill="#84b749"><path d="m18 22h11v4h-11z"/><path d="m29 22h11v4h-11z"/><path d="m18 26h11v4h-11z"/><path d="m29 26h11v4h-11z"/><path d="m18 30h11v4h-11z"/><path d="m29 30h11v4h-11z"/></g><path d="m40 21h-22a1 1 0 0 0 -1 1v12a1 1 0 0 0 1 1h22a1 1 0 0 0 1-1v-12a1 1 0 0 0 -1-1zm-21 6h9v2h-9zm11 0h9v2h-9zm9-2h-9v-2h9zm-20-2h9v2h-9zm0 8h9v2h-9zm20 2h-9v-2h9z" fill="#9dcc6b"/><path d="m40 21h-22a1 1 0 0 0 -1 1v4.5a30.76 30.76 0 0 0 3 4.5h8v2h-6.24c.54.57 1 1.07 2.07 2h16.17a1 1 0 0 0 1-1v-12a1 1 0 0 0 -1-1zm-12 8h-9v-2h9zm0-4h-9v-2h9zm11 8h-9v-2h9zm0-4h-9v-2h9zm0-4h-9v-2h9z" fill="#b5e08c"/><path d="m28 9h12a1 1 0 0 0 0-2h-12a1 1 0 0 0 0 2z" fill="#919191"/><path d="m40 11h-12a1 1 0 0 0 0 2h12a1 1 0 0 0 0-2z" fill="#919191"/><path d="m34 15h-6a1 1 0 0 0 0 2h6a1 1 0 0 0 0-2z" fill="#919191"/><path d="m24 37h-6a1 1 0 0 0 0 2h6a1 1 0 0 0 0-2z" fill="#919191"/></svg>